<svg width="144" height="26" viewBox="0 0 144 26" fill="none" xmlns="http://www.w3.org/2000/svg">
<g filter="url(#filter0_d_1_409)">
<path d="M8.70684 7.91465C8.55509 7.72317 8.27328 7.68062 8.07818 7.82955C8.01315 7.8721 7.9698 7.93593 7.94812 7.99976L4.04614 15.6804C3.93775 15.9145 4.02446 16.1911 4.26291 16.2974C4.32795 16.3187 4.39298 16.34 4.47969 16.34H9.92079C10.0942 16.34 10.2676 16.2549 10.3327 16.0847C11.4816 13.7018 10.7662 10.0848 8.70684 7.91465Z" fill="#787878"/>
<path d="M11.7351 0.269744C9.70124 3.39945 9.45539 7.35042 11.1093 10.7021L13.8137 16.0736C13.9031 16.229 14.0596 16.34 14.2384 16.34H19.8483C20.1165 16.34 20.34 16.118 20.34 15.8517C20.34 15.7851 20.3176 15.6963 20.2953 15.6297C20.2953 15.6297 12.7409 0.624888 12.5621 0.247548C12.4503 0.0255828 12.1821 -0.0632031 11.9586 0.0477793C11.8469 0.114369 11.7798 0.180958 11.7351 0.269744Z" fill="#787878"/>
<path fill-rule="evenodd" clip-rule="evenodd" d="M89.118 12.7838C89.118 12.7881 89.118 12.7924 89.118 12.7967L78.886 6.83893C78.8859 6.82614 78.8859 6.81334 78.8859 6.80051L89.118 12.7838ZM89.118 12.7838L89.14 12.7967C89.14 15.42 87.6469 17.2001 83.9361 17.2001C81.3012 17.2001 79.8959 16.5677 78.82 16.0055V12.6093C80.4009 13.5696 82.1795 14.0849 83.98 14.1083C85.4731 14.1083 85.9123 13.6164 85.9123 12.8903C85.9123 12.1408 85.4731 11.7661 83.3432 11.2976C79.808 10.5527 78.897 8.90553 78.886 6.83893L78.82 6.80051C78.82 4.1772 80.5986 2.58448 84.0459 2.58448C85.5609 2.53763 87.054 2.86554 88.4374 3.5448V6.82394C87.0101 6.12126 85.4951 5.62939 83.958 5.62939C82.6845 5.62939 82.0038 5.98073 82.0038 6.80051C82.0038 7.43292 82.4869 7.90137 84.3972 8.3464C87.8824 9.14138 89.1138 10.3098 89.118 12.7838Z" fill="#787878"/>
<path d="M127.84 2.58008V16.3401H130.782V5.85519L132.013 8.62993L136.186 16.3401H139.88V2.58008H136.938V11.4729L135.821 8.88011L132.469 2.58008H127.84Z" fill="#787878"/>
<rect x="105.48" y="2.58008" width="3.44" height="13.76" fill="#787878"/>
<path d="M102.9 12.7967C102.9 10.3139 101.574 9.14276 97.8074 8.3464C95.7467 7.90137 95.2256 7.43292 95.2256 6.80051C95.2256 5.98073 95.9599 5.62939 97.3337 5.62939C98.9917 5.62939 100.626 6.12126 102.166 6.82394V3.5448C100.673 2.86554 99.0628 2.53763 97.4284 2.58448C93.7097 2.58448 91.7911 4.1772 91.7911 6.80051C91.7911 8.88511 92.7622 10.5481 96.5994 11.2976C98.897 11.7661 99.3707 12.1408 99.3707 12.8903C99.3707 13.6164 98.897 14.1083 97.2863 14.1083C95.344 14.0849 93.4254 13.5696 91.72 12.6093V16.0055C92.8806 16.5677 94.3966 17.2001 97.2389 17.2001C101.313 17.1767 102.9 15.42 102.9 12.7967Z" fill="#787878"/>
<path d="M53.88 2.58008V16.3401H60.5803L61.62 13.3606H57.1608V2.58008H53.88Z" fill="#787878"/>
<path d="M40.98 2.58008V5.55952H44.4569V16.3401H47.6016V5.55952H51.3V2.58008H40.98Z" fill="#787878"/>
<path fill-rule="evenodd" clip-rule="evenodd" d="M31.9953 2.58008H36.2047L40.98 16.3401H37.3363L36.6574 14.0202C34.9826 14.5206 33.2174 14.5206 31.5426 14.0202L30.8637 16.3401H27.22L31.9953 2.58008ZM32.3347 11.291C32.9232 11.4502 33.5116 11.5411 34.1 11.5411C34.6884 11.5411 35.2768 11.4729 35.8653 11.291L34.1 5.28659L32.3347 11.291Z" fill="#787878"/>
<path fill-rule="evenodd" clip-rule="evenodd" d="M67.2553 2.58008H71.4647L76.24 16.3401H72.5963L71.9174 14.0202C70.2426 14.5206 68.4774 14.5206 66.8026 14.0202L66.1237 16.3401H62.48L67.2553 2.58008ZM67.5947 11.291C68.1832 11.4502 68.7716 11.5411 69.36 11.5411C69.9484 11.5411 70.5368 11.4729 71.1253 11.291L69.36 5.28659L67.5947 11.291Z" fill="#787878"/>
<path fill-rule="evenodd" clip-rule="evenodd" d="M116.275 2.58008H120.485L125.26 16.3401H121.616L120.937 14.0202C119.263 14.5206 117.497 14.5206 115.823 14.0202L115.144 16.3401H111.5L116.275 2.58008ZM116.615 11.291C117.203 11.4502 117.792 11.5411 118.38 11.5411C118.968 11.5411 119.557 11.4729 120.145 11.291L118.38 5.28659L116.615 11.291Z" fill="#787878"/>
</g>
<defs>
<filter id="filter0_d_1_409" x="0" y="0" width="143.88" height="25.2002" filterUnits="userSpaceOnUse" color-interpolation-filters="sRGB">
<feFlood flood-opacity="0" result="BackgroundImageFix"/>
<feColorMatrix in="SourceAlpha" type="matrix" values="0 0 0 0 0 0 0 0 0 0 0 0 0 0 0 0 0 0 127 0" result="hardAlpha"/>
<feOffset dy="4"/>
<feGaussianBlur stdDeviation="2"/>
<feComposite in2="hardAlpha" operator="out"/>
<feColorMatrix type="matrix" values="0 0 0 0 0 0 0 0 0 0 0 0 0 0 0 0 0 0 0.25 0"/>
<feBlend mode="normal" in2="BackgroundImageFix" result="effect1_dropShadow_1_409"/>
<feBlend mode="normal" in="SourceGraphic" in2="effect1_dropShadow_1_409" result="shape"/>
</filter>
</defs>
</svg>
